<svg width="27" height="11" viewBox="0 0 27 11" fill="none" xmlns="http://www.w3.org/2000/svg">
<path d="M9.04629 3.85657C8.49807 3.85657 7.88635 4.06772 7.7581 4.76276C7.7446 4.83679 7.79332 4.87181 7.84057 4.88236L8.4023 4.94986C8.45419 4.9469 8.48963 4.89079 8.49954 4.83743C8.54764 4.59822 8.74423 4.48537 8.96382 4.48537C9.08257 4.48537 9.21547 4.52608 9.28592 4.63514C9.36629 4.75664 9.36059 4.9218 9.36059 5.06208V5.14455C9.02689 5.18294 8.58729 5.20615 8.2749 5.34663C7.9144 5.50694 7.66064 5.83326 7.66064 6.31272C7.66064 6.92718 8.03717 7.23368 8.5219 7.23368C8.93112 7.23368 9.15746 7.13749 9.47302 6.80716C9.57786 6.96283 9.6114 7.0335 9.8025 7.19655C9.84511 7.21933 9.89911 7.21722 9.9375 7.18158V7.18896C10.0525 7.08412 10.2613 6.89343 10.3792 6.79218C10.426 6.75274 10.4159 6.68819 10.3792 6.63482C10.2737 6.48569 10.1622 6.36567 10.1622 6.08808V5.16712C10.1622 4.77689 10.1951 4.41703 9.91493 4.14872C9.69429 3.93124 9.32621 3.85657 9.04629 3.85657ZM16.5949 3.85657C16.0465 3.85657 15.4352 4.06772 15.3069 4.76276C15.2934 4.83679 15.3419 4.87181 15.3892 4.88236L15.9511 4.94986C16.003 4.9469 16.0387 4.89079 16.0484 4.83743C16.0967 4.59822 16.2933 4.48537 16.5126 4.48537C16.6316 4.48537 16.7643 4.52608 16.8345 4.63514C16.9149 4.75664 16.9018 4.9218 16.9018 5.06208V5.14455C16.5681 5.18294 16.1361 5.20615 15.8235 5.34663C15.4626 5.50694 15.2097 5.83326 15.2097 6.31272C15.2097 6.92718 15.5862 7.23368 16.0707 7.23368C16.4795 7.23368 16.7059 7.13749 17.0218 6.80716C17.1263 6.96283 17.1602 7.0335 17.3515 7.19655C17.3944 7.21933 17.4481 7.21722 17.4863 7.18158V7.18896C17.6015 7.08412 17.8105 6.89343 17.9282 6.79218C17.9751 6.75274 17.9643 6.68819 17.9282 6.63482C17.8228 6.48569 17.711 6.36567 17.711 6.08808V5.16712C17.711 4.77689 17.7363 4.41703 17.4566 4.14872C17.2351 3.93124 16.8746 3.85657 16.5949 3.85657ZM12.3487 3.88652C11.9944 3.88652 11.732 4.0654 11.5925 4.44825H11.5849V4.05126C11.5811 3.996 11.5364 3.94938 11.4803 3.94643H10.9409C10.8798 3.94643 10.8285 3.99811 10.8285 4.05886V7.09172C10.8331 7.1455 10.8787 7.19275 10.9336 7.19655H11.51C11.5716 7.19655 11.6221 7.14529 11.6223 7.08412V5.47404C11.6223 5.12304 11.6054 4.64294 12.0192 4.64294C12.4278 4.64294 12.3711 5.13633 12.3711 5.47404V7.08412C12.3711 7.14129 12.4179 7.19275 12.4761 7.19655H13.0526C13.1138 7.19655 13.1648 7.14529 13.1648 7.08412V5.47404C13.1648 5.30191 13.1579 5.0509 13.2172 4.89754C13.2764 4.74419 13.422 4.64294 13.5618 4.64294C13.7283 4.64294 13.8559 4.70095 13.8989 4.90493C13.9255 5.02622 13.9139 5.34663 13.9139 5.47404V7.08412C13.9139 7.14129 13.9607 7.19275 14.0185 7.19655H14.5952C14.6564 7.19655 14.7074 7.14529 14.7074 7.08412V5.16712C14.7074 4.84122 14.7399 4.47145 14.5577 4.216C14.3963 3.9865 14.1326 3.88631 13.8911 3.88631C13.5526 3.88631 13.237 4.06518 13.0973 4.44804C12.9362 4.0654 12.7088 3.88652 12.3487 3.88652ZM22.1514 3.88652C21.3184 3.88652 20.8558 4.61911 20.8558 5.56411C20.8558 6.50236 21.3129 7.25625 22.1514 7.25625C22.9578 7.25625 23.4696 6.51965 23.4696 5.59385C23.4696 4.63683 23.0059 3.88652 22.1514 3.88652ZM25.4389 3.88652C25.0408 3.88652 24.8132 4.08543 24.6525 4.50056H24.6451V4.03629C24.6348 3.98946 24.5907 3.95676 24.5403 3.95402H24.0085C23.9505 3.95402 23.9014 3.996 23.8961 4.05126V7.08412C23.8961 7.14129 23.9435 7.19275 24.0009 7.19655H24.5702C24.6312 7.19655 24.6814 7.14551 24.6822 7.08412V5.45168C24.6822 5.24707 24.6998 5.06039 24.7799 4.87518C24.8445 4.72816 24.9695 4.63535 25.1094 4.63535C25.5066 4.63535 25.4686 5.11945 25.4686 5.45168V7.09931C25.4745 7.15078 25.5211 7.19318 25.5737 7.19676H26.1502C26.2069 7.19676 26.2558 7.15373 26.2624 7.09931V5.18969C26.2624 4.89607 26.263 4.48854 26.1126 4.24596C25.9515 3.98418 25.696 3.88652 25.4389 3.88652ZM18.5195 3.93904C18.4609 3.93904 18.4147 3.98545 18.4144 4.05126V4.48558C18.4147 4.55097 18.4594 4.59759 18.5195 4.59801H19.508L18.3771 6.26779C18.3083 6.37558 18.3024 6.4975 18.3024 6.56754V7.00945C18.3024 7.07315 18.3716 7.14234 18.4372 7.10669C19.0819 6.75485 19.8541 6.78607 20.4367 7.09931C20.5076 7.13791 20.5791 7.06556 20.5791 7.00186V6.53737C20.5736 6.47536 20.5491 6.41587 20.4743 6.37263C20.1435 6.18258 19.7596 6.12415 19.3962 6.133L20.377 4.69547C20.4677 4.56616 20.5183 4.48854 20.5192 4.42568V4.05147C20.5192 3.98693 20.4751 3.93925 20.4146 3.93925L18.5195 3.93904ZM22.1514 4.50815C22.3339 4.50815 22.4687 4.58958 22.5334 4.80009C22.6081 5.04309 22.6159 5.346 22.6159 5.60144C22.6159 5.99083 22.5978 6.63482 22.1516 6.63482C21.7004 6.63482 21.7023 5.83748 21.7023 5.46665C21.7021 5.09688 21.727 4.50815 22.1514 4.50815ZM9.35321 5.61642V5.74382C9.35321 5.97417 9.36164 6.16781 9.24837 6.37263C9.15682 6.53927 9.01296 6.64242 8.8516 6.64242C8.63117 6.64242 8.49975 6.46333 8.49975 6.20789C8.49954 5.70438 8.93724 5.61642 9.35321 5.61642ZM16.9018 5.61642V5.74382C16.9018 5.97417 16.9103 6.16781 16.7972 6.37263C16.7054 6.53927 16.5626 6.64242 16.4002 6.64242C16.1794 6.64242 16.0482 6.46333 16.0482 6.20789C16.0482 5.70438 16.4854 5.61642 16.9018 5.61642Z" fill="#201C1D"/>
<path d="M20.6386 7.29382V7.72836H20.931V7.29382H20.6386ZM12.1691 7.36892V10.4617H12.4386V10.1845C12.496 10.2944 12.5614 10.3765 12.6407 10.4315C12.72 10.4868 12.8107 10.514 12.9101 10.514C13.1082 10.514 13.2792 10.413 13.4269 10.2071C13.5748 10.001 13.6515 9.70252 13.6515 9.32346C13.6515 9.07498 13.6197 8.8691 13.5541 8.69466C13.4885 8.52042 13.4011 8.3907 13.2921 8.30506C13.1826 8.21942 13.0586 8.17027 12.9253 8.17027C12.8299 8.17027 12.7409 8.19516 12.6629 8.24494C12.5852 8.29472 12.5224 8.37614 12.4608 8.47718V7.36892H12.1691ZM14.9397 8.09518C14.7368 8.09518 14.5752 8.15529 14.4607 8.27489C14.3461 8.3945 14.2888 8.54827 14.2888 8.73938C14.2888 8.85012 14.313 8.94441 14.3559 9.03132C14.3985 9.11843 14.4592 9.1891 14.5356 9.24099C14.6124 9.29288 14.7655 9.36122 14.9925 9.43568C15.1496 9.48631 15.2435 9.52934 15.2846 9.56309C15.3439 9.61224 15.3747 9.67657 15.3747 9.76538C15.3747 9.86789 15.3388 9.95353 15.2696 10.02C15.2004 10.0868 15.1038 10.1172 14.9775 10.1172C14.8509 10.1172 14.7467 10.0818 14.6706 10.005C14.5942 9.92822 14.5531 9.81136 14.5356 9.65316L14.2436 9.71285C14.3097 10.1934 14.5493 10.4322 14.9625 10.4317C15.1829 10.4317 15.3515 10.3695 15.4791 10.237C15.6065 10.1046 15.674 9.92675 15.674 9.71285C15.674 9.59726 15.6533 9.49728 15.6141 9.41353C15.5744 9.32979 15.5202 9.26735 15.4491 9.21863C15.3783 9.17032 15.2194 9.10557 14.9775 9.02393C14.8016 8.96234 14.6988 8.9172 14.6632 8.88893C14.6033 8.84168 14.5731 8.77714 14.5731 8.69445C14.5731 8.61007 14.6012 8.53857 14.6632 8.48457C14.7252 8.43078 14.8208 8.4023 14.9477 8.4023C15.1709 8.4023 15.2958 8.52486 15.3219 8.76912L15.6067 8.72419C15.5869 8.56978 15.5533 8.44744 15.5021 8.36454C15.4504 8.28186 15.3745 8.21182 15.2774 8.16246C15.1794 8.11353 15.0682 8.09518 14.9397 8.09518ZM16.7297 8.09518C16.4958 8.09518 16.2982 8.19157 16.1454 8.39471C15.9929 8.59784 15.9212 8.8921 15.9212 9.27832C15.9212 9.65042 15.9946 9.94193 16.1454 10.1396C16.2969 10.3366 16.4926 10.4315 16.7373 10.4315C16.9316 10.4315 17.0928 10.3733 17.224 10.2518C17.3556 10.1305 17.4511 9.95164 17.5009 9.71243L17.2014 9.66012C17.1155 9.96619 16.9567 10.1164 16.7373 10.1168C16.5973 10.1168 16.4829 10.0575 16.3853 9.9297C16.2874 9.80166 16.2321 9.61182 16.2208 9.36059H17.5085V9.25575C17.5085 8.87775 17.4332 8.59404 17.2839 8.3945C17.1343 8.19516 16.9529 8.09518 16.7297 8.09518ZM18.5046 8.09518C18.4347 8.09518 18.3736 8.1188 18.3173 8.17006C18.2609 8.2211 18.1977 8.327 18.1299 8.48436V8.13989H17.8678V10.379H18.1599V9.21082C18.1599 9.04798 18.1755 8.89104 18.2124 8.74655C18.2335 8.66344 18.2734 8.59826 18.3246 8.55186C18.3761 8.50524 18.435 8.48436 18.4968 8.48436C18.5655 8.48436 18.6339 8.51199 18.7064 8.56683L18.8039 8.21499C18.7022 8.13357 18.6024 8.09518 18.5046 8.09518ZM22.084 8.09518C21.8528 8.09518 21.6623 8.19263 21.5146 8.38732C21.3678 8.58202 21.2904 8.87438 21.2904 9.26335C21.2904 9.64957 21.3689 9.94214 21.5146 10.1396C21.6608 10.3366 21.8435 10.4315 22.069 10.4315C22.2555 10.4315 22.4154 10.3623 22.5482 10.2218C22.6811 10.0816 22.7621 9.87464 22.7955 9.60781L22.5107 9.56288C22.4894 9.75378 22.4398 9.89131 22.3609 9.98222C22.2822 10.0729 22.1873 10.117 22.0764 10.117C21.935 10.117 21.8146 10.051 21.7241 9.91493C21.634 9.77867 21.5895 9.56056 21.5895 9.25596C21.5895 8.96065 21.6374 8.7476 21.7317 8.61197C21.8262 8.47613 21.9471 8.4023 22.0911 8.4023C22.1875 8.4023 22.2698 8.43964 22.3384 8.51431C22.4073 8.5894 22.4529 8.70795 22.4805 8.85898L22.7655 8.79928C22.7313 8.56325 22.6556 8.38543 22.5331 8.26751C22.4107 8.14939 22.2622 8.09518 22.084 8.09518ZM23.754 8.09518C23.5198 8.09518 23.3224 8.19157 23.1697 8.39471C23.0172 8.59784 22.945 8.8921 22.945 9.27832C22.945 9.65042 23.0186 9.94193 23.1697 10.1396C23.3213 10.3366 23.5169 10.4315 23.7613 10.4315C23.955 10.4315 24.1168 10.3733 24.2482 10.2518C24.3794 10.1305 24.4749 9.95164 24.5254 9.71243L24.2258 9.66012C24.1393 9.96619 23.9879 10.1164 23.7689 10.1168C23.6289 10.1168 23.5072 10.0575 23.4095 9.9297C23.3118 9.80166 23.2566 9.61182 23.2448 9.36059H24.5327V9.25575C24.5327 8.87775 24.4574 8.59404 24.3081 8.3945C24.1592 8.19516 23.9773 8.09518 23.754 8.09518ZM25.4841 8.09518C25.2803 8.09518 25.1194 8.15529 25.0048 8.27489C24.8899 8.39428 24.8325 8.54827 24.8325 8.73938C24.8325 8.85012 24.8498 8.94441 24.8924 9.03132C24.9346 9.11843 24.9955 9.1891 25.0723 9.24099C25.1485 9.29288 25.3022 9.36122 25.5292 9.43568C25.6859 9.48631 25.7878 9.52934 25.8287 9.56309C25.888 9.61224 25.9186 9.67657 25.9186 9.76538C25.9186 9.86789 25.8832 9.95353 25.8138 10.02C25.745 10.0868 25.6482 10.1172 25.5218 10.1172C25.3948 10.1172 25.2911 10.0818 25.2147 10.005C25.1386 9.92822 25.0892 9.81136 25.0723 9.65316L24.7804 9.71285C24.8464 10.1934 25.0854 10.4322 25.499 10.4317C25.7199 10.4317 25.8958 10.3695 26.0232 10.237C26.1506 10.1046 26.2177 9.92675 26.2177 9.71285C26.2177 9.59726 26.1975 9.49728 26.1582 9.41353C26.1186 9.32979 26.0572 9.26735 25.9859 9.21863C25.915 9.17032 25.7636 9.10557 25.5218 9.02393C25.3457 8.96234 25.2356 8.9172 25.1997 8.88893C25.14 8.84168 25.1099 8.77714 25.1099 8.69445C25.1099 8.61007 25.1451 8.53857 25.2073 8.48457C25.2693 8.43078 25.3655 8.4023 25.4921 8.4023C25.7153 8.4023 25.8399 8.52486 25.8663 8.76912L26.1508 8.72419C26.131 8.56978 26.0977 8.44744 26.046 8.36454C25.9945 8.28186 25.9184 8.21182 25.8216 8.16246C25.7239 8.11353 25.6119 8.09518 25.4841 8.09518ZM18.8041 8.1401L19.4559 10.3792H19.7329L20.3844 8.1401H20.0849L19.7029 9.51057C19.6567 9.67615 19.6158 9.81938 19.5905 9.93729C19.5588 9.78858 19.528 9.63228 19.4859 9.4804L19.1114 8.1401H18.8041ZM20.6386 8.1401V10.3792H20.931V8.1401H20.6386ZM11.0382 8.17027C10.8066 8.17027 10.6204 8.27405 10.4693 8.47718C10.3181 8.68032 10.2369 8.97457 10.2369 9.3608C10.2369 9.73311 10.3118 10.0174 10.4615 10.2145C10.6111 10.4117 10.811 10.514 11.0534 10.514C11.2456 10.514 11.4025 10.4482 11.5325 10.3267C11.6624 10.2054 11.7523 10.0265 11.8022 9.78753L11.5101 9.7426C11.4249 10.0487 11.2705 10.1989 11.0534 10.1993C10.9144 10.1993 10.7982 10.14 10.7014 10.012C10.6043 9.88414 10.548 9.69429 10.5366 9.44307H11.8096L11.8172 9.33823C11.8172 8.96023 11.7404 8.66914 11.5926 8.46938C11.4447 8.27004 11.2591 8.17027 11.0382 8.17027ZM7.75098 8.22258L8.27516 10.4617H8.58207L8.92674 8.73938L8.98665 9.12118L9.26361 10.4617H9.56314L10.0949 8.22258H9.81795L9.52559 9.51795L9.42814 9.95248L9.33828 9.51795L9.08368 8.22237H8.78415L8.51457 9.53293L8.42471 9.9972L8.32009 9.51795L8.0503 8.22237L7.75098 8.22258ZM16.7221 8.4023C16.8677 8.4023 16.9875 8.47254 17.0816 8.61197C17.1461 8.70732 17.1883 8.85244 17.2012 9.04629H16.2351C16.2444 8.8497 16.2999 8.69825 16.3927 8.58202C16.4855 8.466 16.5916 8.4023 16.7221 8.4023ZM23.7464 8.4023C23.8915 8.4023 24.0117 8.47254 24.1058 8.61197C24.1708 8.70732 24.2125 8.85244 24.2258 9.04629H23.2595C23.2688 8.8497 23.3245 8.69825 23.4169 8.58202C23.5091 8.466 23.6158 8.4023 23.7464 8.4023ZM11.0382 8.48457C11.1821 8.48457 11.2977 8.55502 11.3905 8.69445C11.4546 8.78979 11.497 8.93492 11.5101 9.12877H10.5588C10.5678 8.93218 10.6168 8.77292 10.7087 8.65711C10.8003 8.54068 10.9087 8.48457 11.0382 8.48457ZM12.8955 8.48457C13.0253 8.48457 13.136 8.55671 13.2252 8.69445C13.3145 8.83198 13.3526 9.04439 13.3526 9.33844C13.3526 9.62468 13.3104 9.83836 13.2176 9.98243C13.125 10.1267 13.0151 10.1995 12.8957 10.1995C12.808 10.1995 12.7283 10.17 12.6561 10.1096C12.5836 10.0493 12.5306 9.96282 12.4912 9.84764C12.4519 9.73247 12.4315 9.55507 12.4315 9.32346C12.4315 9.05051 12.4802 8.84611 12.5736 8.70183C12.6671 8.55755 12.7761 8.48457 12.8955 8.48457Z" fill="black"/>
<path d="M3.55345 6.11086L2.43759 6.5899L3.47098 7.03181L4.66931 6.5899L3.55345 6.11086ZM1.87608 6.70971L1.83853 8.86676L3.47119 9.58563V7.34632L1.87608 6.70971ZM5.23083 6.70971L3.75553 7.27144V9.38334L5.23083 8.78428V6.70971ZM6.99068 0L5.86723 0.479039L6.9082 0.920953L8.10654 0.479039L6.99068 0ZM5.43291 0.63661V2.79323L6.82594 3.1976L6.87087 1.23546L5.43291 0.63661ZM8.54824 0.756211L7.23009 1.31794V3.43723L8.54824 2.83816V0.756211ZM1.71471 3.03539L0.598851 3.51464L1.63223 3.95655L2.83036 3.51464L1.71471 3.03539ZM0.0375469 3.63466L0 5.79129L1.63245 6.51017V4.27106L0.0375469 3.63466ZM3.3923 3.63466L1.917 4.19618V6.30809L3.3923 5.70902V3.63466ZM5.3093 2.95587L4.19344 3.43491L5.22682 3.87661L6.42495 3.43491L5.3093 2.95587ZM3.63192 3.55472L3.59459 5.71156L5.22703 6.43043V4.19133L3.63192 3.55472ZM6.98688 3.55472L5.51159 4.11645V6.22835L6.98688 5.62908V3.55472ZM10.5015 0L9.38587 0.479039L10.4193 0.920953L11.6176 0.479039L10.5015 0ZM8.82415 0.599063L8.7866 2.7559L10.4193 3.47456V1.23567L8.82415 0.599063ZM12.1789 0.599063L10.7036 1.16079V3.27248L12.1789 2.67342V0.599063Z" fill="#F7A80D"/>
</svg>
