<svg width="816" height="240" viewBox="0 0 816 240" fill="none" xmlns="http://www.w3.org/2000/svg">
<g clip-path="url(#clip0_110_23)">
<path d="M166.22 158.36H144.22L118.95 86.66L104.76 125.88H126.6L132.6 142.95H99.4299L93.6899 158.38H71.6899L106.79 67.28H131.1L166.22 158.36ZM558.47 158.36V141.29H519.95V67.29H500.42V158.39L558.47 158.36ZM671.04 158.36V141.29H632.54V67.29H612.98V158.39L671.04 158.36ZM392.25 83.59C386.457 83.59 380.794 85.3079 375.977 88.5263C371.161 91.7447 367.406 96.3192 365.19 101.671C362.973 107.023 362.393 112.913 363.523 118.594C364.653 124.276 367.443 129.495 371.539 133.591C375.635 137.687 380.854 140.477 386.536 141.607C392.217 142.737 398.107 142.157 403.459 139.94C408.811 137.724 413.385 133.969 416.604 129.153C419.822 124.336 421.54 118.673 421.54 112.88C421.532 105.114 418.444 97.6689 412.952 92.1777C407.461 86.6864 400.016 83.598 392.25 83.59ZM392.25 65.76C401.57 65.7581 410.681 68.5199 418.431 73.6963C426.181 78.8727 432.222 86.2312 435.79 94.8411C439.358 103.451 440.293 112.926 438.476 122.067C436.659 131.208 432.172 139.605 425.582 146.195C418.993 152.786 410.597 157.275 401.456 159.094C392.316 160.913 382.841 159.98 374.23 156.414C365.62 152.848 358.26 146.809 353.082 139.06C347.904 131.31 345.14 122.2 345.14 112.88C345.14 100.383 350.104 88.3979 358.941 79.5612C367.778 70.7245 379.763 65.76 392.26 65.76H392.25ZM760.82 83.59C755.027 83.59 749.364 85.3079 744.547 88.5263C739.731 91.7447 735.976 96.3192 733.76 101.671C731.543 107.023 730.963 112.913 732.093 118.594C733.223 124.276 736.012 129.495 740.109 133.591C744.205 137.687 749.424 140.477 755.106 141.607C760.787 142.737 766.677 142.157 772.029 139.94C777.381 137.724 781.955 133.969 785.174 129.153C788.392 124.336 790.11 118.673 790.11 112.88C790.102 105.114 787.014 97.6689 781.522 92.1777C776.031 86.6864 768.586 83.598 760.82 83.59ZM760.82 65.76C770.139 65.76 779.25 68.5236 786.998 73.7012C794.747 78.8788 800.787 86.2379 804.353 94.848C807.92 103.458 808.853 112.932 807.035 122.073C805.216 131.213 800.729 139.609 794.139 146.199C787.549 152.789 779.153 157.277 770.013 159.095C760.872 160.913 751.398 159.98 742.788 156.413C734.178 152.847 726.819 146.807 721.641 139.059C716.464 131.31 713.7 122.199 713.7 112.88C713.7 100.383 718.664 88.3979 727.501 79.5612C736.338 70.7245 748.323 65.76 760.82 65.76ZM294.82 97.14C294.82 113.33 281.7 127.01 265.5 127.01H242.44V158.36H223.04V67.26H265.54C281.71 67.26 294.83 80.94 294.83 97.13L294.82 97.14ZM276.99 97.14C276.99 90.81 271.84 85.14 265.5 85.14H242.44V109.18H265.54C271.85 109.18 277.01 103.47 277.01 97.13L276.99 97.14ZM206.28 186.01C205.478 186.01 204.688 186.202 203.976 186.571C203.264 186.94 202.652 187.475 202.19 188.13C202.19 188.13 197.82 193.13 195.46 195.48C180.607 210.355 161.76 220.604 141.201 224.987C120.642 229.37 99.2534 227.698 79.6252 220.174C59.997 212.65 42.9711 199.597 30.6093 182.595C18.2476 165.594 11.0802 145.372 9.97517 124.381C8.87013 103.389 13.8748 82.5271 24.3832 64.3214C34.8916 46.1157 50.4529 31.3471 69.1827 21.8041C87.9125 12.2611 109.007 8.353 129.913 10.5531C150.818 12.7532 170.637 20.967 186.97 34.2C186.058 36.8505 186.082 39.7337 187.039 42.3685C187.995 45.0032 189.827 47.2302 192.227 48.6776C194.628 50.1251 197.452 50.7054 200.229 50.3219C203.006 49.9384 205.567 48.6142 207.485 46.5703C209.403 44.5264 210.563 41.8864 210.77 39.0909C210.976 36.2954 210.218 33.5136 208.622 31.2096C207.025 28.9057 204.686 27.219 201.996 26.431C199.306 25.6431 196.427 25.8016 193.84 26.88C175.715 12.0297 153.6 2.87736 130.281 0.576836C106.963 -1.72369 83.485 2.93052 62.8076 13.9528C42.1302 24.9751 25.1787 41.872 14.0898 62.5138C3.00097 83.1555 -1.72891 106.618 0.496431 129.944C2.72178 153.27 11.8027 175.414 26.5946 193.587C41.3865 211.76 61.2272 225.147 83.6157 232.06C106.004 238.974 129.938 239.105 152.401 232.437C174.864 225.769 194.85 212.6 209.84 194.59C210.549 193.891 211.033 192.997 211.23 192.021C211.427 191.046 211.329 190.034 210.948 189.114C210.567 188.195 209.92 187.411 209.09 186.861C208.26 186.312 207.285 186.022 206.29 186.03L206.28 186.01Z" fill="#3F20BA"/>
</g>
<defs>
<clipPath id="clip0_110_23">
<rect width="816" height="240" fill="white"/>
</clipPath>
</defs>
</svg>
