<svg width="50" height="54" viewBox="0 0 50 54" fill="none" xmlns="http://www.w3.org/2000/svg">
<path fill-rule="evenodd" clip-rule="evenodd" d="M2.05606 20.2745C2.67758 20.4867 3.34048 20.6073 4.03242 20.6073C4.65392 20.6073 5.25339 20.5117 5.81951 20.3391V36.7481C5.81951 37.328 6.12812 37.8684 6.62597 38.1582L22.2754 47.2835C23.0157 46.4108 24.112 45.8554 25.3361 45.8554C26.6684 45.8554 27.8475 46.5134 28.5823 47.5218C28.5953 47.5403 28.6093 47.5576 28.6221 47.5756C28.6739 47.6494 28.7221 47.7248 28.769 47.8026L28.8227 47.891C28.8641 47.9626 28.9023 48.0355 28.9388 48.1093C28.9587 48.1489 28.9775 48.1891 28.9964 48.2294C29.0277 48.2978 29.0571 48.3673 29.0851 48.4378C29.1049 48.4882 29.1228 48.5388 29.1405 48.5899C29.163 48.6544 29.185 48.7195 29.2039 48.7852C29.2222 48.8477 29.2368 48.9107 29.2523 48.9737L29.2926 49.1513C29.3082 49.23 29.3184 49.3097 29.3292 49.3902C29.3351 49.4379 29.3443 49.4847 29.3486 49.5324C29.3609 49.6627 29.3685 49.7941 29.3685 49.9277C29.3685 50.1406 29.3475 50.3474 29.3157 50.5516L29.3044 50.6275C28.9748 52.5406 27.3226 54 25.3361 54C23.5646 54 22.0598 52.8386 21.5195 51.2314L4.74425 41.4502C3.08026 40.4806 2.05606 38.6876 2.05606 36.7481V20.2745ZM45.9678 10.2908C48.1916 10.2908 50 12.1173 50 14.3631C50 15.5848 49.4625 16.6794 48.6163 17.4265V36.7481C48.6163 38.6876 47.5921 40.4806 45.928 41.4502L31.5152 49.8539C31.499 48.479 31.0388 47.2135 30.2754 46.1876L44.0464 38.1582C44.5442 37.8684 44.8529 37.328 44.8529 36.7481V18.2736C43.1705 17.7838 41.9357 16.2179 41.9357 14.3631C41.9357 13.4601 42.2319 12.6277 42.7265 11.9517C42.734 11.9409 42.7421 11.9306 42.7496 11.9197C42.8431 11.7948 42.9431 11.6743 43.0495 11.5608L43.0641 11.545C43.2851 11.3127 43.5324 11.1079 43.8024 10.9337C43.8302 10.9152 43.8597 10.8984 43.8883 10.8804C43.9952 10.8158 44.1044 10.755 44.2173 10.7002C44.2501 10.6844 44.283 10.6671 44.3162 10.6519C44.4576 10.5878 44.6018 10.5286 44.7513 10.4814L45.0443 10.3994C45.3411 10.3287 45.6501 10.2908 45.9678 10.2908ZM25.3359 0C26.2645 0 27.1924 0.242165 28.0241 0.72704L42.5226 9.18112C41.4554 9.90759 40.6296 10.9637 40.1752 12.2006L26.1424 4.01908C25.8979 3.87572 25.6188 3.80081 25.3359 3.80081C25.0532 3.80081 24.7747 3.87572 24.5295 4.01908L8 13.6574C8.03977 13.887 8.0645 14.1216 8.0645 14.3632C8.0645 16.1154 6.96128 17.608 5.42096 18.1814C5.40913 18.1858 5.39677 18.1906 5.38493 18.1944C5.2629 18.2385 5.13925 18.2765 5.01235 18.3085L4.93656 18.328C4.82043 18.3551 4.70161 18.3764 4.58225 18.3931L4.48495 18.4079C4.33602 18.4246 4.18547 18.4356 4.03226 18.4356C3.86828 18.4356 3.70699 18.4225 3.54731 18.403C3.5043 18.3974 3.46237 18.3899 3.41989 18.3834C3.29731 18.3643 3.17687 18.34 3.05805 18.3101C3.0215 18.3008 2.98495 18.2921 2.94839 18.2819C2.63387 18.1922 2.33494 18.0679 2.0559 17.9088L1.81626 17.7607C0.723586 17.0318 0 15.7822 0 14.3632C0 12.1175 1.80915 10.2909 4.03226 10.2909C4.60913 10.2909 5.15644 10.4158 5.65268 10.6368L22.6478 0.72704C23.4795 0.242165 24.408 0 25.3359 0Z" fill="#0284C7"/>
<path d="M36.8605 17.7763C36.8605 17.6619 36.83 17.5551 36.7919 17.4483C36.7843 17.4178 36.769 17.3949 36.7614 17.372C36.7156 17.2805 36.6622 17.2042 36.6012 17.1279C36.5936 17.1203 36.5859 17.1127 36.5783 17.0974C36.5173 17.0364 36.4486 16.983 36.3647 16.9372L29.2099 13.047L29.637 12.1317C29.8964 11.8113 30.0489 11.4452 30.0642 11.0562C30.0642 11.0486 30.0642 11.0409 30.0642 11.0257C30.0642 11.018 30.0642 11.0104 30.0642 11.0028C30.0642 9.54586 28.203 8.4856 25.6324 8.4856C23.0619 8.4856 21.2007 9.54586 21.2007 11.0028C21.2007 11.3842 21.3304 11.7274 21.5668 12.0402L21.9558 12.9479L14.8772 16.9143C14.8467 16.9372 14.8162 16.9601 14.7857 16.983C14.7476 17.0059 14.717 17.0287 14.6865 17.0593C14.656 17.0898 14.6408 17.1203 14.6179 17.1508C14.5874 17.1889 14.5569 17.2194 14.534 17.2576C14.5187 17.2881 14.5035 17.3262 14.4882 17.3567C14.473 17.4025 14.4501 17.4406 14.4348 17.4864C14.4196 17.5246 14.4196 17.5703 14.4196 17.6161C14.4196 17.6542 14.4043 17.6924 14.4043 17.7305V28.4933L10.3082 30.4994C10.3006 30.4994 10.2853 30.5147 10.2777 30.5223C10.2624 30.5223 10.2548 30.5299 10.2395 30.5376C10.209 30.5528 10.1861 30.5833 10.1556 30.5986C10.1251 30.6215 10.0946 30.6444 10.0641 30.6672C10.0336 30.6978 10.0031 30.7359 9.9726 30.774C9.9497 30.8045 9.9268 30.8274 9.9039 30.8656C9.881 30.9037 9.8658 30.9495 9.8429 30.9952C9.8276 31.0258 9.8124 31.0639 9.8047 31.0944C9.7895 31.1402 9.7895 31.1859 9.7819 31.2393C9.7819 31.2698 9.7666 31.3004 9.7666 31.3385C9.7666 31.3385 9.7666 31.3461 9.7666 31.3538C9.7666 31.3538 9.7666 31.3614 9.7666 31.369V34.7557C9.7666 35.099 9.9573 35.4194 10.2548 35.5872L20.7049 41.3996C20.7506 41.4224 20.7964 41.4377 20.8422 41.453C20.8727 41.4606 20.8956 41.4758 20.9185 41.4835C20.9947 41.5064 21.0786 41.514 21.1625 41.514C21.2464 41.514 21.3227 41.5064 21.4066 41.4835C21.4371 41.4835 21.46 41.4606 21.4905 41.453C21.5363 41.4377 21.5821 41.4224 21.6278 41.3996L36.3571 33.337C36.6622 33.1692 36.8529 32.8488 36.8529 32.4979V17.7839L36.8605 17.7763ZM25.6324 10.4002C26.9368 10.4002 27.7758 10.7511 28.0657 10.9875L28.0352 11.0562C27.7148 11.285 26.8986 11.613 25.6324 11.613C24.3662 11.613 23.4966 11.2621 23.2068 11.0333L23.1915 10.9875C23.4738 10.7587 24.3128 10.3926 25.6401 10.3926L25.6324 10.4002ZM26.9215 13.4284L25.9681 15.4574C25.8079 15.8007 25.2358 15.793 25.0832 15.4422L24.2137 13.4055C24.6561 13.4818 25.129 13.52 25.6324 13.52C26.0901 13.52 26.5173 13.4818 26.9215 13.4208V13.4284ZM22.711 14.7328L23.3365 16.1897C23.7102 17.0745 24.5722 17.639 25.5333 17.639C26.4944 17.639 27.3029 17.0974 27.6996 16.266L28.3937 14.7785L33.9315 17.7915L25.5333 22.4826L25.4189 22.414L17.28 17.7534L22.711 14.7175V14.7328ZM24.5722 24.1379V33.4438L19.2708 30.4994L16.3036 28.8518V19.3934L24.5722 24.1302V24.1379ZM20.2243 38.9358L11.6812 34.1837V32.9785L20.2243 37.7306V38.9358ZM21.2083 36.0982L12.7948 31.4148L15.0374 30.324L23.4509 34.9998L22.1694 35.6253L21.2083 36.0906V36.0982ZM34.9536 31.9258L22.1313 38.9434V37.7687L25.9299 35.9228C25.9299 35.9228 25.9528 35.9075 25.9604 35.8999C25.9681 35.8999 25.9833 35.8923 25.9986 35.8847C26.0291 35.8694 26.052 35.8465 26.0748 35.8236C26.1054 35.8008 26.1435 35.7779 26.1664 35.7474C26.1816 35.7321 26.1969 35.7168 26.2121 35.7016C26.2274 35.6863 26.2427 35.6635 26.2503 35.6482C26.2732 35.6177 26.3037 35.5872 26.3189 35.5567C26.3418 35.5185 26.3571 35.4728 26.38 35.4346C26.38 35.427 26.3876 35.4194 26.3952 35.4041C26.3952 35.3889 26.4105 35.3736 26.4181 35.3583C26.4181 35.3431 26.4181 35.3355 26.4257 35.3202C26.441 35.2744 26.441 35.2287 26.4486 35.1829C26.4486 35.1524 26.4639 35.1219 26.4639 35.0837C26.4639 35.0837 26.4639 35.0761 26.4639 35.0685C26.4639 35.0685 26.4639 35.0685 26.4639 35.0532L26.4791 24.1302L34.9536 19.3934V31.9182V31.9258Z" fill="#0284C7"/>
</svg>
