<svg width="100" height="100" viewBox="0 0 100 100" fill="#F37A1A" xmlns="http://www.w3.org/2000/svg">
<path d="M20.102 30.83C20.102 35.851 16.0319 39.9195 11.0125 39.9195C5.99156 39.9195 1.92261 35.851 1.92261 30.83C1.92261 25.8091 5.99118 21.7405 11.0121 21.7405C16.0321 21.7405 20.102 25.8091 20.102 30.83Z"/>
<path d="M38.3093 71.8522C31.595 71.8522 26.1329 66.3905 26.1329 59.6764C26.1329 52.9623 31.5954 47.5 38.3093 47.5H61.315C65.2799 47.5 68.506 44.2737 68.506 40.3084C68.506 36.3431 65.2798 33.1168 61.315 33.1168H11.0114C9.6348 33.1168 8.5188 32.0006 8.5188 30.6244C8.5188 29.2478 9.63499 28.1318 11.0112 28.1318H61.3146C68.0289 28.1318 73.4904 33.5943 73.4904 40.3082C73.4904 47.0221 68.0287 52.484 61.3146 52.484H38.3089C34.3432 52.484 31.1173 55.7103 31.1173 59.6764C31.1173 63.6414 34.3436 66.8675 38.3089 66.8675H89.1771C90.5537 66.8675 91.6697 67.9836 91.6697 69.3598C91.6697 70.7362 90.5538 71.8522 89.1773 71.8522H38.3093Z"/>
<path d="M80.0884 69.3603C80.0884 64.3393 84.157 60.2708 89.1779 60.2708C94.1989 60.2708 98.2674 64.3393 98.2674 69.3603C98.2674 74.3812 94.1989 78.4498 89.1779 78.4498C84.157 78.4498 80.0884 74.3812 80.0884 69.3603Z"/>
</svg>
