<svg width="17" height="20" viewBox="0 0 17 20" fill="none" xmlns="http://www.w3.org/2000/svg">
<path d="M0.62064 18.43L0.00064046 1.92004C-0.00871611 1.65782 0.0847493 1.40232 0.261103 1.20803C0.437456 1.01374 0.68274 0.896044 0.94464 0.88004L14.9846 0.00203999C15.1218 -0.00671356 15.2593 0.0127663 15.3887 0.0592749C15.518 0.105784 15.6365 0.178332 15.7367 0.272435C15.8369 0.366538 15.9167 0.480194 15.9712 0.606376C16.0257 0.732558 16.0538 0.868583 16.0536 1.00604V18.995C16.0535 19.1309 16.0259 19.2652 15.9724 19.3901C15.9189 19.5149 15.8407 19.6277 15.7425 19.7215C15.6443 19.8153 15.5281 19.8882 15.401 19.936C15.2738 19.9837 15.1383 20.0051 15.0026 19.999L1.58064 19.396C1.32849 19.3847 1.08982 19.2789 0.911995 19.0998C0.734166 18.9207 0.63017 18.6823 0.62064 18.43Z" fill="#FF4785"/>
<path fill-rule="evenodd" clip-rule="evenodd" d="M13.8807 0.0710449L11.9487 0.191045L11.8547 2.45804C11.8536 2.48641 11.8605 2.51452 11.8747 2.53911C11.8889 2.56369 11.9097 2.58375 11.9349 2.59695C11.96 2.61014 11.9884 2.61594 12.0167 2.61365C12.045 2.61137 12.072 2.6011 12.0947 2.58404L12.9747 1.91604L13.7187 2.50204C13.7412 2.51982 13.7683 2.5308 13.7968 2.53367C13.8253 2.53655 13.854 2.5312 13.8796 2.51826C13.9051 2.50533 13.9264 2.48534 13.941 2.46067C13.9556 2.436 13.9628 2.40767 13.9617 2.37904L13.8807 0.0710449ZM12.3767 7.66104C12.0237 7.93604 9.38773 8.12304 9.38773 7.73204C9.44373 6.23904 8.77573 6.17404 8.40373 6.17404C8.05173 6.17404 7.45773 6.28004 7.45773 7.08004C7.45773 7.89504 8.32573 8.35505 9.34473 8.89505C10.7917 9.66205 12.5447 10.591 12.5447 12.927C12.5447 15.167 10.7247 16.403 8.40473 16.403C6.00973 16.403 3.91673 15.434 4.15273 12.075C4.24573 11.681 7.29073 11.775 7.29073 12.075C7.25273 13.461 7.56873 13.869 8.36673 13.869C8.97973 13.869 9.25773 13.531 9.25773 12.963C9.25773 12.102 8.35373 11.594 7.31273 11.01C5.90373 10.219 4.24573 9.28804 4.24573 7.15104C4.24573 5.01904 5.71173 3.59704 8.32973 3.59704C10.9477 3.59704 12.3767 4.99704 12.3767 7.66104Z" fill="white"/>
</svg>
